# xmcd
#
# Track frame offsets: 
#        150
#        12688
#        26270
#        41717
#        63589
#        79264
#        93191
#        105536
#        126579
#        137439
#        158013
#
# Disc length: 2462 seconds
#
# Revision: 0
# Processed by: cddbd v1.5.2PL0 Copyright (c) Steve Scherf et al.
# Submitted via: ExactAudioCopy v0.99pb4
#
DISCID=8b099c0b
DTITLE=Frank Morey - Made In USA
DYEAR=2008
DGENRE=Blues
TTITLE0=Must Be Hard (To Be So Pretty)
TTITLE1=Freight Train
TTITLE2=Standing On A Corner (A Love Song)
TTITLE3=Made In USA
TTITLE4=This Ol' Life (Seems To Be Taking Forever)
TTITLE5=I Stopped Believing in You Today
TTITLE6=You're My Jesus
TTITLE7=No Good
TTITLE8=Lord Have Mercy (When I Lay My Burden Down)
TTITLE9=North Atlantic Line
TTITLE10=No Evil
EXTD=
EXTT0=
EXTT1=
EXTT2=
EXTT3=
EXTT4=
EXTT5=
EXTT6=
EXTT7=
EXTT8=
EXTT9=
EXTT10=
PLAYORDER=
